ply
format ascii 1.0
comment VCGLIB generated
element vertex 8
property float x
property float y
property float z
element face 12
property list uchar int vertex_indices
property float materialIndex
end_header
-0.5 -0.5 0.5 
0.5 -0.5 0.5 
-0.5 0.5 0.5 
0.5 0.5 0.5 
-0.5 0.5 -0.5 
0.5 0.5 -0.5 
-0.5 -0.5 -0.5 
0.5 -0.5 -0.5 
3 0 1 2 0.000000 
3 2 1 3 0.000000 
3 2 3 4 0.000000 
3 4 3 5 0.000000 
3 4 5 6 0.000000 
3 6 5 7 0.000000 
3 6 7 0 0.000000 
3 0 7 1 0.000000 
3 1 7 3 0.000000 
3 3 7 5 0.000000 
3 6 0 4 0.000000 
3 4 0 2 0.000000 
